<svg width="44" height="44" viewBox="0 0 44 44" fill="none" xmlns="http://www.w3.org/2000/svg">
<g clip-path="url(#clip0_1_235)">
<path d="M14.5997 31.2L21.7997 38.4L28.9997 31.2" stroke="#173145" stroke-width="2.4" stroke-linecap="round" stroke-linejoin="round"/>
<path d="M21.8 22.2007V38.4007" stroke="#173145" stroke-width="2.4" stroke-linecap="round" stroke-linejoin="round"/>
<path d="M37.7841 33.1612C39.3491 32.0608 40.5226 30.4903 41.1345 28.6777C41.7463 26.8651 41.7647 24.9047 41.1869 23.0809C40.609 21.2572 39.4651 19.665 37.9211 18.5355C36.377 17.4059 34.5132 16.7977 32.6001 16.7992H30.3321C29.7908 14.6894 28.7778 12.7299 27.3696 11.0682C25.9613 9.40649 24.1944 8.08591 22.2019 7.20588C20.2094 6.32585 18.0433 5.90929 15.8665 5.98757C13.6897 6.06586 11.5591 6.63693 9.63494 7.65781C7.71082 8.67869 6.04335 10.1228 4.75809 11.8813C3.47282 13.6399 2.60324 15.6671 2.21482 17.8104C1.82639 19.9537 1.92925 22.1571 2.51563 24.2549C3.10202 26.3526 4.15665 28.2901 5.60015 29.9212" stroke="#173145" stroke-width="2.4" stroke-linecap="round" stroke-linejoin="round"/>
</g>
<defs>
<clipPath id="clip0_1_235">
<rect width="43.2" height="43.2" fill="white" transform="translate(0.200073 0.599731)"/>
</clipPath>
</defs>
</svg>
