<svg width="44" height="44" viewBox="0 0 44 44" fill="none" xmlns="http://www.w3.org/2000/svg">
<path fill-rule="evenodd" clip-rule="evenodd" d="M15.1844 8.99368L15.2339 8.77768C15.3284 8.37628 15.4832 7.78588 15.8027 7.20448C16.1285 6.61228 16.6334 6.01198 17.4254 5.61688C18.2147 5.22358 19.2038 5.07688 20.4269 5.23888C21.7769 5.41888 24.4886 5.86528 26.8844 7.08388C29.2937 8.30968 31.5509 10.4184 31.5509 13.9302C31.5509 15.7446 30.8489 17.6913 30.1685 18.9603C29.8418 19.5705 29.4539 20.1537 29.0651 20.4678C28.976 20.5398 28.8491 20.6298 28.6916 20.6928C28.2595 22.1126 27.3995 23.3643 26.2291 24.2768C25.0587 25.1893 23.6351 25.718 22.1528 25.7907C20.6705 25.8634 19.2019 25.4765 17.9478 24.6829C16.6938 23.8893 15.7154 22.7277 15.1466 21.357L15.125 21.3606L14.8055 20.9727L14.8046 20.9709L14.8028 20.9691L14.7983 20.9628L14.783 20.9448C14.7059 20.8489 14.6318 20.7508 14.5607 20.6505C14.3663 20.3809 14.1832 20.1035 14.0117 19.8189C13.5887 19.1187 13.0784 18.1215 12.7517 16.9578C12.4259 15.7941 12.2765 14.4297 12.6185 13.0221C12.9515 11.6523 13.7372 10.3041 15.1601 9.09988L15.1844 8.99368ZM16.6964 20.3679C17.0867 21.4904 17.8363 22.4529 18.829 23.1063C19.8217 23.7597 21.0021 24.0675 22.1875 23.9821C23.3729 23.8968 24.497 23.4229 25.3858 22.634C26.2747 21.845 26.8785 20.7851 27.104 19.6182L27.2057 19.6524C27.2021 19.6015 27.2003 19.5504 27.2003 19.4994C27.2003 18.0099 26.9933 16.9704 26.8007 16.3224C26.763 16.1962 26.7213 16.0714 26.6756 15.948L26.6387 15.9498H26.6027C25.9297 15.9643 25.2569 15.9131 24.5939 15.7968C23.0486 15.5358 20.9561 14.8842 18.4919 13.3749C18.4379 13.4955 18.3839 13.6314 18.3299 13.7826C18.1535 14.2821 18.0086 14.8752 17.8835 15.5016C17.7728 16.0533 17.6819 16.6086 17.5955 17.1288L17.5622 17.334C17.4695 17.892 17.3768 18.4401 17.2688 18.837C17.0798 19.5264 16.8872 20.016 16.6964 20.367V20.3679ZM15.4364 18.6912C15.0299 17.9934 14.7107 17.2483 14.486 16.4727C14.2169 15.5133 14.1179 14.4747 14.3681 13.4478C14.6111 12.4488 15.1988 11.3985 16.4075 10.4031C16.6253 10.2555 16.7243 10.0575 16.7513 10.0044V10.0035C16.7985 9.90617 16.8365 9.80462 16.8647 9.70018C16.8935 9.59758 16.925 9.45718 16.9547 9.33118L16.9862 9.18988C17.0717 8.82718 17.1824 8.43208 17.3804 8.07118C17.573 7.72198 17.8367 7.42318 18.2291 7.22788C18.6233 7.03078 19.2335 6.89578 20.1893 7.02358C21.497 7.19728 23.9567 7.61398 26.0681 8.68858C28.1651 9.75508 29.7509 11.3697 29.7509 13.9302C29.7509 15.1092 29.3549 16.4502 28.8779 17.5077C28.7879 16.8183 28.6583 16.2549 28.5251 15.8085C28.4322 15.4894 28.3164 15.1775 28.1786 14.8752C28.1266 14.7631 28.0695 14.6535 28.0076 14.5467L27.9923 14.5224L27.9869 14.5134L27.9842 14.5089L27.9824 14.5062L27.6494 13.9896L27.0536 14.1093L27.041 14.112L26.9537 14.1237C26.8197 14.1386 26.6852 14.1476 26.5505 14.1507C25.9956 14.1614 25.4409 14.118 24.8945 14.0211C23.4428 13.7763 21.3098 13.1094 18.7187 11.3841L18.0887 10.9638L17.5676 11.5128C17.1383 11.9646 16.8467 12.5811 16.6334 13.1814C16.4156 13.7979 16.2509 14.4864 16.1186 15.147C16.0089 15.7092 15.9093 16.2732 15.8198 16.839L15.7856 17.0406C15.6893 17.6265 15.611 18.0738 15.5318 18.3636C15.5022 18.4734 15.4704 18.5826 15.4364 18.6912Z" fill="#173145"/>
<path fill-rule="evenodd" clip-rule="evenodd" d="M16.3227 26.5699C16.1319 26.1901 15.897 25.7212 15.5001 25.8121C10.6365 26.9191 5.6001 30.115 5.6001 33.5134V38.4004H38.0001V33.5134C38.0001 30.8368 34.8753 28.2853 31.1718 26.7814L31.1673 26.7724C31.1632 26.7643 31.159 26.7562 31.1547 26.7481L31.125 26.7625C30.1413 26.3665 29.1171 26.0425 28.1001 25.8121C27.6474 25.7086 27.1794 26.3314 26.9751 26.7211H16.4001C16.3749 26.6743 16.3497 26.6221 16.3227 26.5699ZM28.4628 27.7579C28.8561 27.8668 29.2476 27.9892 29.6337 28.1242C29.6445 28.432 29.6211 28.7956 29.5707 29.1664C29.5194 29.5503 29.4375 29.9295 29.3259 30.3004H28.1001C27.933 30.3005 27.7692 30.3471 27.6271 30.435C27.485 30.5229 27.3702 30.6486 27.2955 30.7981L26.3955 32.5981C26.3329 32.723 26.3002 32.8607 26.3001 33.0004V34.8004C26.3001 35.0391 26.3949 35.268 26.5637 35.4368C26.7325 35.6056 26.9614 35.7004 27.2001 35.7004H29.0001V33.9004H28.1001V33.2128L28.6563 32.1004H31.1439L31.7001 33.2128V33.9004H30.8001V35.7004H32.6001C32.8388 35.7004 33.0677 35.6056 33.2365 35.4368C33.4053 35.268 33.5001 35.0391 33.5001 34.8004V33.0004C33.5 32.8607 33.4673 32.723 33.4047 32.5981L32.5047 30.7981C32.43 30.6486 32.3152 30.5229 32.1731 30.435C32.031 30.3471 31.8672 30.3005 31.7001 30.3004H31.1907C31.3019 29.8241 31.3765 29.34 31.4139 28.8523C32.2914 29.2672 33.1068 29.7433 33.8133 30.2581C35.5431 31.5199 36.2001 32.7007 36.2001 33.5134V36.6004H7.4001V33.5134C7.4001 32.7007 8.0571 31.5199 9.7869 30.2581C10.6563 29.6236 11.694 29.0494 12.8064 28.5742C12.8373 29.2914 12.9524 30.0025 13.1493 30.6928L13.1565 30.718C12.6184 31.0584 12.218 31.578 12.0259 32.185C11.8337 32.792 11.8623 33.4473 12.1065 34.0353C12.3507 34.6233 12.7948 35.1061 13.3604 35.3984C13.9261 35.6907 14.5768 35.7737 15.1977 35.6328C15.8186 35.4918 16.3697 35.136 16.7537 34.6282C17.1377 34.1203 17.3298 33.4931 17.2962 32.8573C17.2626 32.2215 17.0054 31.618 16.5701 31.1535C16.1347 30.6889 15.5492 30.3931 14.9169 30.3184C14.8019 29.9418 14.7176 29.5566 14.6649 29.1664C14.6148 28.8175 14.594 28.4649 14.6028 28.1125C14.6054 28.0452 14.6099 27.978 14.6163 27.9109C14.7243 27.8776 14.8323 27.8452 14.9403 27.8146L15.3138 28.522H28.0614L28.4628 27.7588V27.7579ZM14.6001 33.9148C15.0843 33.9148 15.5001 33.5188 15.5001 33.0013C15.5001 32.4847 15.0843 32.0878 14.6001 32.0878C14.1159 32.0878 13.7001 32.4838 13.7001 33.0013C13.7001 33.5179 14.1159 33.9148 14.6001 33.9148Z" fill="#173145"/>
</svg>
