<svg width="39" height="39" viewBox="0 0 39 39" fill="none" xmlns="http://www.w3.org/2000/svg">
<path d="M19.2003 0.200195C13.9899 0.200195 13.3347 0.224195 11.2875 0.315395C9.24031 0.411395 7.84591 0.732995 6.62431 1.2082C5.34293 1.69016 4.18229 2.44618 3.22351 3.4234C2.24689 4.38267 1.49096 5.54317 1.00831 6.8242C0.533105 8.0434 0.209105 9.4402 0.115505 11.4802C0.0243052 13.5322 0.000305176 14.185 0.000305176 19.4026C0.000305176 24.6154 0.0243052 25.2682 0.115505 27.3154C0.211505 29.3602 0.533105 30.7546 1.00831 31.9762C1.50031 33.2386 2.15551 34.309 3.22351 35.377C4.28911 36.445 5.35951 37.1026 6.62191 37.5922C7.84591 38.0674 9.23791 38.3914 11.2827 38.485C13.3323 38.5762 13.9851 38.6002 19.2003 38.6002C24.4155 38.6002 25.0659 38.5762 27.1155 38.485C29.1579 38.389 30.5571 38.0674 31.7787 37.5922C33.0593 37.11 34.2191 36.354 35.1771 35.377C36.2451 34.309 36.9003 33.2386 37.3923 31.9762C37.8651 30.7546 38.1891 29.3602 38.2851 27.3154C38.3763 25.2682 38.4003 24.6154 38.4003 19.4002C38.4003 14.185 38.3763 13.5322 38.2851 11.4826C38.1891 9.4402 37.8651 8.0434 37.3923 6.8242C36.9097 5.54314 36.1538 4.38262 35.1771 3.4234C34.2186 2.44582 33.0579 1.68974 31.7763 1.2082C30.5523 0.732995 29.1555 0.408995 27.1131 0.315395C25.0635 0.224195 24.4131 0.200195 19.1955 0.200195H19.2027H19.2003ZM17.4795 3.661H19.2027C24.3291 3.661 24.9363 3.6778 26.9595 3.7714C28.8315 3.8554 29.8491 4.1698 30.5259 4.4314C31.4211 4.7794 32.0619 5.197 32.7339 5.869C33.4059 6.541 33.8211 7.1794 34.1691 8.077C34.4331 8.7514 34.7451 9.769 34.8291 11.641C34.9227 13.6642 34.9419 14.2714 34.9419 19.3954C34.9419 24.5194 34.9227 25.129 34.8291 27.1522C34.7451 29.0242 34.4307 30.0394 34.1691 30.7162C33.8613 31.5499 33.37 32.3036 32.7315 32.9218C32.0595 33.5938 31.4211 34.009 30.5235 34.357C29.8515 34.621 28.8339 34.933 26.9595 35.0194C24.9363 35.1106 24.3291 35.1322 19.2027 35.1322C14.0763 35.1322 13.4667 35.1106 11.4435 35.0194C9.57151 34.933 8.55631 34.621 7.87951 34.357C7.0455 34.0496 6.29101 33.5592 5.6715 32.9218C5.03251 32.3027 4.54044 31.5482 4.23151 30.7138C3.96991 30.0394 3.65551 29.0218 3.57151 27.1498C3.48031 25.1266 3.46111 24.5194 3.46111 19.3906C3.46111 14.2642 3.48031 13.6594 3.57151 11.6362C3.65791 9.7642 3.96991 8.7466 4.23391 8.0698C4.58191 7.1746 4.99951 6.5338 5.6715 5.8618C6.34351 5.1898 6.98191 4.7746 7.87951 4.4266C8.55631 4.1626 9.57151 3.8506 11.4435 3.7642C13.2147 3.6826 13.9011 3.6586 17.4795 3.6562V3.661ZM29.4507 6.8482C29.1481 6.8482 28.8485 6.90779 28.569 7.02358C28.2895 7.13936 28.0355 7.30908 27.8215 7.52302C27.6076 7.73697 27.4379 7.99096 27.3221 8.27049C27.2063 8.55003 27.1467 8.84963 27.1467 9.1522C27.1467 9.45476 27.2063 9.75436 27.3221 10.0339C27.4379 10.3134 27.6076 10.5674 27.8215 10.7814C28.0355 10.9953 28.2895 11.165 28.569 11.2808C28.8485 11.3966 29.1481 11.4562 29.4507 11.4562C30.0618 11.4562 30.6478 11.2135 31.0799 10.7814C31.512 10.3493 31.7547 9.76325 31.7547 9.1522C31.7547 8.54114 31.512 7.95511 31.0799 7.52302C30.6478 7.09094 30.0618 6.8482 29.4507 6.8482ZM19.2027 9.541C17.8949 9.52059 16.5961 9.76056 15.3819 10.2469C14.1677 10.7333 13.0623 11.4564 12.1303 12.374C11.1982 13.2917 10.458 14.3856 9.95272 15.592C9.44747 16.7985 9.18727 18.0934 9.18727 19.4014C9.18727 20.7094 9.44747 22.0043 9.95272 23.2108C10.458 24.4172 11.1982 25.5111 12.1303 26.4288C13.0623 27.3464 14.1677 28.0695 15.3819 28.5559C16.5961 29.0422 17.8949 29.2822 19.2027 29.2618C21.7912 29.2214 24.26 28.1648 26.0763 26.32C27.8925 24.4752 28.9105 21.9902 28.9105 19.4014C28.9105 16.8126 27.8925 14.3276 26.0763 12.4828C24.26 10.638 21.7912 9.58138 19.2027 9.541ZM19.2027 12.9994C20.9003 12.9994 22.5284 13.6738 23.7288 14.8741C24.9291 16.0745 25.6035 17.7026 25.6035 19.4002C25.6035 21.0978 24.9291 22.7259 23.7288 23.9262C22.5284 25.1266 20.9003 25.801 19.2027 25.801C17.5051 25.801 15.877 25.1266 14.6767 23.9262C13.4763 22.7259 12.8019 21.0978 12.8019 19.4002C12.8019 17.7026 13.4763 16.0745 14.6767 14.8741C15.877 13.6738 17.5051 12.9994 19.2027 12.9994Z" fill="white"/>
</svg>
