<svg width="30" height="29" viewBox="0 0 30 29" fill="none" xmlns="http://www.w3.org/2000/svg">
<path d="M25.9998 -0.000488281C26.8485 -0.000488281 27.6625 0.336653 28.2626 0.93677C28.8627 1.53689 29.1998 2.35082 29.1998 3.19951V25.5995C29.1998 26.4482 28.8627 27.2621 28.2626 27.8623C27.6625 28.4624 26.8485 28.7995 25.9998 28.7995H3.59984C2.75115 28.7995 1.93722 28.4624 1.3371 27.8623C0.736983 27.2621 0.399841 26.4482 0.399841 25.5995V3.19951C0.399841 2.35082 0.736983 1.53689 1.3371 0.93677C1.93722 0.336653 2.75115 -0.000488281 3.59984 -0.000488281H25.9998ZM25.1998 24.7995V16.3195C25.1998 14.9361 24.6503 13.6094 23.6721 12.6312C22.6939 11.6531 21.3672 11.1035 19.9838 11.1035C18.6238 11.1035 17.0398 11.9355 16.2718 13.1835V11.4075H11.8078V24.7995H16.2718V16.9115C16.2718 15.6795 17.2638 14.6715 18.4958 14.6715C19.0899 14.6715 19.6597 14.9075 20.0798 15.3276C20.4998 15.7477 20.7358 16.3174 20.7358 16.9115V24.7995H25.1998ZM6.60784 8.89551C7.32074 8.89551 8.00445 8.61231 8.50854 8.10821C9.01264 7.60412 9.29584 6.92041 9.29584 6.20751C9.29584 4.71951 8.09584 3.50351 6.60784 3.50351C5.8907 3.50351 5.20292 3.7884 4.69582 4.29549C4.18873 4.80259 3.90384 5.49037 3.90384 6.20751C3.90384 7.69551 5.11984 8.89551 6.60784 8.89551ZM8.83184 24.7995V11.4075H4.39984V24.7995H8.83184Z" fill="white"/>
</svg>
