<svg width="44" height="44" viewBox="0 0 44 44" fill="none" xmlns="http://www.w3.org/2000/svg">
<path d="M32.6001 13.4877C32.4921 13.4697 32.3661 13.4697 32.2581 13.4877C29.7741 13.3977 27.7941 11.3637 27.7941 8.84371C27.7941 6.26971 29.8641 4.19971 32.4381 4.19971C35.0121 4.19971 37.0821 6.28771 37.0821 8.84371C37.0641 11.3637 35.0841 13.3977 32.6001 13.4877Z" stroke="#292D32" stroke-width="1.8" stroke-linecap="round" stroke-linejoin="round"/>
<path d="M30.7461 26.5918C33.2121 27.0058 35.9301 26.5738 37.8381 25.2958C40.3761 23.6038 40.3761 20.8318 37.8381 19.1398C35.9121 17.8618 33.1581 17.4297 30.6921 17.8617" stroke="#292D32" stroke-width="1.8" stroke-linecap="round" stroke-linejoin="round"/>
<path d="M10.9461 13.4877C11.0541 13.4697 11.1801 13.4697 11.2881 13.4877C13.7721 13.3977 15.7521 11.3637 15.7521 8.84371C15.7521 6.26971 13.6821 4.19971 11.1081 4.19971C8.53408 4.19971 6.46408 6.28771 6.46408 8.84371C6.48208 11.3637 8.46208 13.3977 10.9461 13.4877Z" stroke="#292D32" stroke-width="1.8" stroke-linecap="round" stroke-linejoin="round"/>
<path d="M12.8001 26.5918C10.3341 27.0058 7.61608 26.5738 5.70808 25.2958C3.17008 23.6038 3.17008 20.8318 5.70808 19.1398C7.63408 17.8618 10.3881 17.4297 12.8541 17.8617" stroke="#292D32" stroke-width="1.8" stroke-linecap="round" stroke-linejoin="round"/>
<path d="M21.8001 26.9336C21.6921 26.9156 21.5661 26.9156 21.4581 26.9336C18.9741 26.8436 16.9941 24.8096 16.9941 22.2896C16.9941 19.7156 19.0641 17.6456 21.6381 17.6456C24.2121 17.6456 26.2821 19.7336 26.2821 22.2896C26.2641 24.8096 24.2841 26.8616 21.8001 26.9336Z" stroke="#292D32" stroke-width="1.8" stroke-linecap="round" stroke-linejoin="round"/>
<path d="M16.5621 32.6036C14.0241 34.2956 14.0241 37.0676 16.5621 38.7596C19.4421 40.6856 24.1581 40.6856 27.0381 38.7596C29.5761 37.0676 29.5761 34.2956 27.0381 32.6036C24.1761 30.6956 19.4421 30.6956 16.5621 32.6036Z" stroke="#292D32" stroke-width="1.8" stroke-linecap="round" stroke-linejoin="round"/>
</svg>
